<?xml version="1.0" encoding="utf-8" standalone="no"?>
<!DOCTYPE svg PUBLIC "-//W3C//DTD SVG 1.1//EN"
  "http://www.w3.org/Graphics/SVG/1.1/DTD/svg11.dtd">
<!-- Created with matplotlib (https://matplotlib.org/) -->
<svg height="288pt" version="1.1" viewBox="0 0 460.8 288" width="460.8pt" xmlns="http://www.w3.org/2000/svg" xmlns:xlink="http://www.w3.org/1999/xlink">
 <defs>
  <style type="text/css">
*{stroke-linecap:butt;stroke-linejoin:round;}
  </style>
 </defs>
 <g id="figure_1">
  <g id="patch_1">
   <path d="M 0 288 
L 460.8 288 
L 460.8 0 
L 0 0 
z
" style="fill:none;"/>
  </g>
  <g id="axes_1">
   <g id="patch_2">
    <path d="M 63.08024 244.79976 
L 455.25668 244.79976 
L 455.25668 3.00024 
L 63.08024 3.00024 
z
" style="fill:none;"/>
   </g>
   <g id="matplotlib.axis_1">
    <g id="xtick_1">
     <g id="line2d_1">
      <defs>
       <path d="M 0 0 
L 0 3.5 
" id="medcc079435" style="stroke:#000000;stroke-width:0.8;"/>
      </defs>
      <g>
       <use style="fill-opacity:0;stroke:#000000;stroke-width:0.8;" x="80.906442" xlink:href="#medcc079435" y="244.79976"/>
      </g>
     </g>
     <g id="text_1">
      <!-- $\mathdefault{128}$ -->
      <g transform="translate(68.726442 261.87976)">
       <text>
        <tspan style="font-family:Lato;font-size:14px;font-style:hairline;font-weight:hairline;" x="0 8.119995 16.23999" y="-0.09375">128</tspan>
       </text>
      </g>
     </g>
    </g>
    <g id="xtick_2">
     <g id="line2d_2">
      <g>
       <use style="fill-opacity:0;stroke:#000000;stroke-width:0.8;" x="131.838447" xlink:href="#medcc079435" y="244.79976"/>
      </g>
     </g>
     <g id="text_2">
      <!-- $\mathdefault{256}$ -->
      <g transform="translate(119.658447 261.87976)">
       <text>
        <tspan style="font-family:Lato;font-size:14px;font-style:hairline;font-weight:hairline;" x="0 8.119995 16.23999" y="-0.09375">256</tspan>
       </text>
      </g>
     </g>
    </g>
    <g id="xtick_3">
     <g id="line2d_3">
      <g>
       <use style="fill-opacity:0;stroke:#000000;stroke-width:0.8;" x="182.770452" xlink:href="#medcc079435" y="244.79976"/>
      </g>
     </g>
     <g id="text_3">
      <!-- $\mathdefault{512}$ -->
      <g transform="translate(170.590452 261.87976)">
       <text>
        <tspan style="font-family:Lato;font-size:14px;font-style:hairline;font-weight:hairline;" x="0 8.119995 16.23999" y="-0.09375">512</tspan>
       </text>
      </g>
     </g>
    </g>
    <g id="xtick_4">
     <g id="line2d_4">
      <g>
       <use style="fill-opacity:0;stroke:#000000;stroke-width:0.8;" x="233.702458" xlink:href="#medcc079435" y="244.79976"/>
      </g>
     </g>
     <g id="text_4">
      <!-- $\mathdefault{1024}$ -->
      <g transform="translate(217.462458 261.87976)">
       <text>
        <tspan style="font-family:Lato;font-size:14px;font-style:hairline;font-weight:hairline;" x="0 8.119995 16.23999 24.359985" y="-0.09375">1024</tspan>
       </text>
      </g>
     </g>
    </g>
    <g id="xtick_5">
     <g id="line2d_5">
      <g>
       <use style="fill-opacity:0;stroke:#000000;stroke-width:0.8;" x="284.634463" xlink:href="#medcc079435" y="244.79976"/>
      </g>
     </g>
     <g id="text_5">
      <!-- $\mathdefault{2048}$ -->
      <g transform="translate(268.394463 261.87976)">
       <text>
        <tspan style="font-family:Lato;font-size:14px;font-style:hairline;font-weight:hairline;" x="0 8.119995 16.23999 24.359985" y="-0.09375">2048</tspan>
       </text>
      </g>
     </g>
    </g>
    <g id="xtick_6">
     <g id="line2d_6">
      <g>
       <use style="fill-opacity:0;stroke:#000000;stroke-width:0.8;" x="335.566468" xlink:href="#medcc079435" y="244.79976"/>
      </g>
     </g>
     <g id="text_6">
      <!-- $\mathdefault{4096}$ -->
      <g transform="translate(319.326468 261.87976)">
       <text>
        <tspan style="font-family:Lato;font-size:14px;font-style:hairline;font-weight:hairline;" x="0 8.119995 16.23999 24.359985" y="-0.09375">4096</tspan>
       </text>
      </g>
     </g>
    </g>
    <g id="xtick_7">
     <g id="line2d_7">
      <g>
       <use style="fill-opacity:0;stroke:#000000;stroke-width:0.8;" x="386.498473" xlink:href="#medcc079435" y="244.79976"/>
      </g>
     </g>
     <g id="text_7">
      <!-- $\mathdefault{8192}$ -->
      <g transform="translate(370.258473 261.87976)">
       <text>
        <tspan style="font-family:Lato;font-size:14px;font-style:hairline;font-weight:hairline;" x="0 8.119995 16.23999 24.359985" y="-0.09375">8192</tspan>
       </text>
      </g>
     </g>
    </g>
    <g id="xtick_8">
     <g id="line2d_8">
      <g>
       <use style="fill-opacity:0;stroke:#000000;stroke-width:0.8;" x="437.430478" xlink:href="#medcc079435" y="244.79976"/>
      </g>
     </g>
     <g id="text_8">
      <!-- $\mathdefault{16384}$ -->
      <g transform="translate(417.130478 261.87976)">
       <text>
        <tspan style="font-family:Lato;font-size:14px;font-style:hairline;font-weight:hairline;" x="0 8.119995 16.23999 24.359985 32.47998" y="-0.09375">16384</tspan>
       </text>
      </g>
     </g>
    </g>
    <g id="text_9">
     <text style="font-family:Lato;font-size:14px;font-style:normal;font-weight:normal;text-anchor:middle;" transform="rotate(-0, 259.16846, 282.47976)" x="259.16846" y="282.47976">MPI processes</text>
    </g>
   </g>
   <g id="matplotlib.axis_2">
    <g id="ytick_1">
     <g id="line2d_9">
      <defs>
       <path d="M 0 0 
L -3.5 0 
" id="m91f666bde1" style="stroke:#000000;stroke-width:0.8;"/>
      </defs>
      <g>
       <use style="fill-opacity:0;stroke:#000000;stroke-width:0.8;" x="63.08024" xlink:href="#m91f666bde1" y="199.543415"/>
      </g>
     </g>
     <g id="text_10">
      <!-- $\mathdefault{10}$ -->
      <g transform="translate(39.84024 204.583415)">
       <text>
        <tspan style="font-family:Lato;font-size:14px;font-style:hairline;font-weight:hairline;" x="0 8.119995" y="-0.09375">10</tspan>
       </text>
      </g>
     </g>
    </g>
    <g id="ytick_2">
     <g id="line2d_10">
      <g>
       <use style="fill-opacity:0;stroke:#000000;stroke-width:0.8;" x="63.08024" xlink:href="#m91f666bde1" y="103.918671"/>
      </g>
     </g>
     <g id="text_11">
      <!-- $\mathdefault{100}$ -->
      <g transform="translate(31.72024 108.958671)">
       <text>
        <tspan style="font-family:Lato;font-size:14px;font-style:hairline;font-weight:hairline;" x="0 8.119995 16.23999" y="-0.09375">100</tspan>
       </text>
      </g>
     </g>
    </g>
    <g id="ytick_3">
     <g id="line2d_11">
      <g>
       <use style="fill-opacity:0;stroke:#000000;stroke-width:0.8;" x="63.08024" xlink:href="#m91f666bde1" y="8.293927"/>
      </g>
     </g>
     <g id="text_12">
      <!-- $\mathdefault{1000}$ -->
      <g transform="translate(23.60024 13.333927)">
       <text>
        <tspan style="font-family:Lato;font-size:14px;font-style:hairline;font-weight:hairline;" x="0 8.119995 16.23999 24.359985" y="-0.09375">1000</tspan>
       </text>
      </g>
     </g>
    </g>
    <g id="ytick_4">
     <g id="line2d_12">
      <defs>
       <path d="M 0 0 
L -2 0 
" id="mb1fdb361b1" style="stroke:#000000;stroke-width:0.6;"/>
      </defs>
      <g>
       <use style="fill-opacity:0;stroke:#000000;stroke-width:0.6;" x="63.08024" xlink:href="#mb1fdb361b1" y="237.596327"/>
      </g>
     </g>
    </g>
    <g id="ytick_5">
     <g id="line2d_13">
      <g>
       <use style="fill-opacity:0;stroke:#000000;stroke-width:0.6;" x="63.08024" xlink:href="#mb1fdb361b1" y="228.329332"/>
      </g>
     </g>
    </g>
    <g id="ytick_6">
     <g id="line2d_14">
      <g>
       <use style="fill-opacity:0;stroke:#000000;stroke-width:0.6;" x="63.08024" xlink:href="#mb1fdb361b1" y="220.757645"/>
      </g>
     </g>
    </g>
    <g id="ytick_7">
     <g id="line2d_15">
      <g>
       <use style="fill-opacity:0;stroke:#000000;stroke-width:0.6;" x="63.08024" xlink:href="#mb1fdb361b1" y="214.355876"/>
      </g>
     </g>
    </g>
    <g id="ytick_8">
     <g id="line2d_16">
      <g>
       <use style="fill-opacity:0;stroke:#000000;stroke-width:0.6;" x="63.08024" xlink:href="#mb1fdb361b1" y="208.81041"/>
      </g>
     </g>
    </g>
    <g id="ytick_9">
     <g id="line2d_17">
      <g>
       <use style="fill-opacity:0;stroke:#000000;stroke-width:0.6;" x="63.08024" xlink:href="#mb1fdb361b1" y="203.918964"/>
      </g>
     </g>
    </g>
    <g id="ytick_10">
     <g id="line2d_18">
      <g>
       <use style="fill-opacity:0;stroke:#000000;stroke-width:0.6;" x="63.08024" xlink:href="#mb1fdb361b1" y="170.757499"/>
      </g>
     </g>
    </g>
    <g id="ytick_11">
     <g id="line2d_19">
      <g>
       <use style="fill-opacity:0;stroke:#000000;stroke-width:0.6;" x="63.08024" xlink:href="#mb1fdb361b1" y="153.918817"/>
      </g>
     </g>
    </g>
    <g id="ytick_12">
     <g id="line2d_20">
      <g>
       <use style="fill-opacity:0;stroke:#000000;stroke-width:0.6;" x="63.08024" xlink:href="#mb1fdb361b1" y="141.971583"/>
      </g>
     </g>
    </g>
    <g id="ytick_13">
     <g id="line2d_21">
      <g>
       <use style="fill-opacity:0;stroke:#000000;stroke-width:0.6;" x="63.08024" xlink:href="#mb1fdb361b1" y="132.704587"/>
      </g>
     </g>
    </g>
    <g id="ytick_14">
     <g id="line2d_22">
      <g>
       <use style="fill-opacity:0;stroke:#000000;stroke-width:0.6;" x="63.08024" xlink:href="#mb1fdb361b1" y="125.132901"/>
      </g>
     </g>
    </g>
    <g id="ytick_15">
     <g id="line2d_23">
      <g>
       <use style="fill-opacity:0;stroke:#000000;stroke-width:0.6;" x="63.08024" xlink:href="#mb1fdb361b1" y="118.731131"/>
      </g>
     </g>
    </g>
    <g id="ytick_16">
     <g id="line2d_24">
      <g>
       <use style="fill-opacity:0;stroke:#000000;stroke-width:0.6;" x="63.08024" xlink:href="#mb1fdb361b1" y="113.185666"/>
      </g>
     </g>
    </g>
    <g id="ytick_17">
     <g id="line2d_25">
      <g>
       <use style="fill-opacity:0;stroke:#000000;stroke-width:0.6;" x="63.08024" xlink:href="#mb1fdb361b1" y="108.294219"/>
      </g>
     </g>
    </g>
    <g id="ytick_18">
     <g id="line2d_26">
      <g>
       <use style="fill-opacity:0;stroke:#000000;stroke-width:0.6;" x="63.08024" xlink:href="#mb1fdb361b1" y="75.132755"/>
      </g>
     </g>
    </g>
    <g id="ytick_19">
     <g id="line2d_27">
      <g>
       <use style="fill-opacity:0;stroke:#000000;stroke-width:0.6;" x="63.08024" xlink:href="#mb1fdb361b1" y="58.294073"/>
      </g>
     </g>
    </g>
    <g id="ytick_20">
     <g id="line2d_28">
      <g>
       <use style="fill-opacity:0;stroke:#000000;stroke-width:0.6;" x="63.08024" xlink:href="#mb1fdb361b1" y="46.346839"/>
      </g>
     </g>
    </g>
    <g id="ytick_21">
     <g id="line2d_29">
      <g>
       <use style="fill-opacity:0;stroke:#000000;stroke-width:0.6;" x="63.08024" xlink:href="#mb1fdb361b1" y="37.079843"/>
      </g>
     </g>
    </g>
    <g id="ytick_22">
     <g id="line2d_30">
      <g>
       <use style="fill-opacity:0;stroke:#000000;stroke-width:0.6;" x="63.08024" xlink:href="#mb1fdb361b1" y="29.508157"/>
      </g>
     </g>
    </g>
    <g id="ytick_23">
     <g id="line2d_31">
      <g>
       <use style="fill-opacity:0;stroke:#000000;stroke-width:0.6;" x="63.08024" xlink:href="#mb1fdb361b1" y="23.106387"/>
      </g>
     </g>
    </g>
    <g id="ytick_24">
     <g id="line2d_32">
      <g>
       <use style="fill-opacity:0;stroke:#000000;stroke-width:0.6;" x="63.08024" xlink:href="#mb1fdb361b1" y="17.560922"/>
      </g>
     </g>
    </g>
    <g id="ytick_25">
     <g id="line2d_33">
      <g>
       <use style="fill-opacity:0;stroke:#000000;stroke-width:0.6;" x="63.08024" xlink:href="#mb1fdb361b1" y="12.669475"/>
      </g>
     </g>
    </g>
    <g id="text_13">
     <text style="font-family:Lato;font-size:14px;font-style:normal;font-weight:normal;text-anchor:middle;" transform="rotate(-90, 13.08024, 123.9)" x="13.08024" y="123.9">Time (milliseconds)</text>
    </g>
   </g>
   <g id="line2d_34">
    <path clip-path="url(#p2f30b8b81f)" d="M 80.906442 89.879291 
L 131.838447 113.805094 
L 182.770452 139.286129 
L 233.702458 168.769595 
L 284.634463 186.247523 
L 335.566468 206.992876 
" style="fill:none;stroke:#1f77b4;stroke-linecap:square;stroke-width:2;"/>
    <defs>
     <path d="M 0 4 
C 1.060812 4 2.078319 3.578535 2.828427 2.828427 
C 3.578535 2.078319 4 1.060812 4 0 
C 4 -1.060812 3.578535 -2.078319 2.828427 -2.828427 
C 2.078319 -3.578535 1.060812 -4 0 -4 
C -1.060812 -4 -2.078319 -3.578535 -2.828427 -2.828427 
C -3.578535 -2.078319 -4 -1.060812 -4 0 
C -4 1.060812 -3.578535 2.078319 -2.828427 2.828427 
C -2.078319 3.578535 -1.060812 4 0 4 
z
" id="m6b73812a2a" style="stroke:#1f77b4;stroke-width:1.5;"/>
    </defs>
    <g clip-path="url(#p2f30b8b81f)">
     <use style="fill-opacity:0;stroke:#1f77b4;stroke-width:1.5;" x="80.906442" xlink:href="#m6b73812a2a" y="89.879291"/>
     <use style="fill-opacity:0;stroke:#1f77b4;stroke-width:1.5;" x="131.838447" xlink:href="#m6b73812a2a" y="113.805094"/>
     <use style="fill-opacity:0;stroke:#1f77b4;stroke-width:1.5;" x="182.770452" xlink:href="#m6b73812a2a" y="139.286129"/>
     <use style="fill-opacity:0;stroke:#1f77b4;stroke-width:1.5;" x="233.702458" xlink:href="#m6b73812a2a" y="168.769595"/>
     <use style="fill-opacity:0;stroke:#1f77b4;stroke-width:1.5;" x="284.634463" xlink:href="#m6b73812a2a" y="186.247523"/>
     <use style="fill-opacity:0;stroke:#1f77b4;stroke-width:1.5;" x="335.566468" xlink:href="#m6b73812a2a" y="206.992876"/>
    </g>
   </g>
   <g id="line2d_35">
    <path clip-path="url(#p2f30b8b81f)" d="M 80.906442 89.879291 
L 131.838447 118.665208 
L 182.770452 147.451124 
L 233.702458 176.23704 
L 284.634463 205.022956 
L 335.566468 233.808873 
" style="fill:none;stroke:#000000;stroke-dasharray:2,3.3;stroke-dashoffset:0;stroke-width:2;"/>
   </g>
   <g id="line2d_36">
    <path clip-path="url(#p2f30b8b81f)" d="M 80.906442 85.528721 
L 131.838447 108.396785 
L 182.770452 136.485742 
L 233.702458 159.606278 
L 284.634463 177.367297 
L 335.566468 204.427382 
" style="fill:none;stroke:#ff7f0e;stroke-linecap:square;stroke-width:2;"/>
    <defs>
     <path d="M 0 4 
C 1.060812 4 2.078319 3.578535 2.828427 2.828427 
C 3.578535 2.078319 4 1.060812 4 0 
C 4 -1.060812 3.578535 -2.078319 2.828427 -2.828427 
C 2.078319 -3.578535 1.060812 -4 0 -4 
C -1.060812 -4 -2.078319 -3.578535 -2.828427 -2.828427 
C -3.578535 -2.078319 -4 -1.060812 -4 0 
C -4 1.060812 -3.578535 2.078319 -2.828427 2.828427 
C -2.078319 3.578535 -1.060812 4 0 4 
z
" id="m586d8b2ad3" style="stroke:#ff7f0e;stroke-width:1.5;"/>
    </defs>
    <g clip-path="url(#p2f30b8b81f)">
     <use style="fill-opacity:0;stroke:#ff7f0e;stroke-width:1.5;" x="80.906442" xlink:href="#m586d8b2ad3" y="85.528721"/>
     <use style="fill-opacity:0;stroke:#ff7f0e;stroke-width:1.5;" x="131.838447" xlink:href="#m586d8b2ad3" y="108.396785"/>
     <use style="fill-opacity:0;stroke:#ff7f0e;stroke-width:1.5;" x="182.770452" xlink:href="#m586d8b2ad3" y="136.485742"/>
     <use style="fill-opacity:0;stroke:#ff7f0e;stroke-width:1.5;" x="233.702458" xlink:href="#m586d8b2ad3" y="159.606278"/>
     <use style="fill-opacity:0;stroke:#ff7f0e;stroke-width:1.5;" x="284.634463" xlink:href="#m586d8b2ad3" y="177.367297"/>
     <use style="fill-opacity:0;stroke:#ff7f0e;stroke-width:1.5;" x="335.566468" xlink:href="#m586d8b2ad3" y="204.427382"/>
    </g>
   </g>
   <g id="line2d_37">
    <path clip-path="url(#p2f30b8b81f)" d="M 131.838447 13.991127 
L 182.770452 40.885061 
L 233.702458 63.484773 
L 284.634463 84.885742 
L 335.566468 120.967481 
L 386.498473 137.233211 
L 437.430478 158.819361 
" style="fill:none;stroke:#1f77b4;stroke-linecap:square;stroke-width:2;"/>
    <defs>
     <path d="M 0 -4 
L -4 4 
L 4 4 
z
" id="m379e5a9889" style="stroke:#1f77b4;stroke-linejoin:miter;stroke-width:1.5;"/>
    </defs>
    <g clip-path="url(#p2f30b8b81f)">
     <use style="fill-opacity:0;stroke:#1f77b4;stroke-linejoin:miter;stroke-width:1.5;" x="131.838447" xlink:href="#m379e5a9889" y="13.991127"/>
     <use style="fill-opacity:0;stroke:#1f77b4;stroke-linejoin:miter;stroke-width:1.5;" x="182.770452" xlink:href="#m379e5a9889" y="40.885061"/>
     <use style="fill-opacity:0;stroke:#1f77b4;stroke-linejoin:miter;stroke-width:1.5;" x="233.702458" xlink:href="#m379e5a9889" y="63.484773"/>
     <use style="fill-opacity:0;stroke:#1f77b4;stroke-linejoin:miter;stroke-width:1.5;" x="284.634463" xlink:href="#m379e5a9889" y="84.885742"/>
     <use style="fill-opacity:0;stroke:#1f77b4;stroke-linejoin:miter;stroke-width:1.5;" x="335.566468" xlink:href="#m379e5a9889" y="120.967481"/>
     <use style="fill-opacity:0;stroke:#1f77b4;stroke-linejoin:miter;stroke-width:1.5;" x="386.498473" xlink:href="#m379e5a9889" y="137.233211"/>
     <use style="fill-opacity:0;stroke:#1f77b4;stroke-linejoin:miter;stroke-width:1.5;" x="437.430478" xlink:href="#m379e5a9889" y="158.819361"/>
    </g>
   </g>
   <g id="line2d_38">
    <path clip-path="url(#p2f30b8b81f)" d="M 131.838447 13.991127 
L 182.770452 42.777044 
L 233.702458 71.56296 
L 284.634463 100.348876 
L 335.566468 129.134792 
L 386.498473 157.920709 
L 437.430478 186.706625 
" style="fill:none;stroke:#000000;stroke-dasharray:2,3.3;stroke-dashoffset:0;stroke-width:2;"/>
   </g>
   <g id="line2d_39">
    <path clip-path="url(#p2f30b8b81f)" d="M 131.838447 16.910145 
L 182.770452 48.451448 
L 233.702458 66.412883 
L 284.634463 91.182651 
L 335.566468 113.611388 
L 386.498473 128.923867 
L 437.430478 149.258361 
" style="fill:none;stroke:#ff7f0e;stroke-linecap:square;stroke-width:2;"/>
    <defs>
     <path d="M 0 -4 
L -4 4 
L 4 4 
z
" id="m7edc874373" style="stroke:#ff7f0e;stroke-linejoin:miter;stroke-width:1.5;"/>
    </defs>
    <g clip-path="url(#p2f30b8b81f)">
     <use style="fill-opacity:0;stroke:#ff7f0e;stroke-linejoin:miter;stroke-width:1.5;" x="131.838447" xlink:href="#m7edc874373" y="16.910145"/>
     <use style="fill-opacity:0;stroke:#ff7f0e;stroke-linejoin:miter;stroke-width:1.5;" x="182.770452" xlink:href="#m7edc874373" y="48.451448"/>
     <use style="fill-opacity:0;stroke:#ff7f0e;stroke-linejoin:miter;stroke-width:1.5;" x="233.702458" xlink:href="#m7edc874373" y="66.412883"/>
     <use style="fill-opacity:0;stroke:#ff7f0e;stroke-linejoin:miter;stroke-width:1.5;" x="284.634463" xlink:href="#m7edc874373" y="91.182651"/>
     <use style="fill-opacity:0;stroke:#ff7f0e;stroke-linejoin:miter;stroke-width:1.5;" x="335.566468" xlink:href="#m7edc874373" y="113.611388"/>
     <use style="fill-opacity:0;stroke:#ff7f0e;stroke-linejoin:miter;stroke-width:1.5;" x="386.498473" xlink:href="#m7edc874373" y="128.923867"/>
     <use style="fill-opacity:0;stroke:#ff7f0e;stroke-linejoin:miter;stroke-width:1.5;" x="437.430478" xlink:href="#m7edc874373" y="149.258361"/>
    </g>
   </g>
   <g id="patch_3">
    <path d="M 63.08024 244.79976 
L 63.08024 3.00024 
" style="fill:none;stroke:#000000;stroke-linecap:square;stroke-linejoin:miter;stroke-width:0.8;"/>
   </g>
   <g id="patch_4">
    <path d="M 455.25668 244.79976 
L 455.25668 3.00024 
" style="fill:none;stroke:#000000;stroke-linecap:square;stroke-linejoin:miter;stroke-width:0.8;"/>
   </g>
   <g id="patch_5">
    <path d="M 63.08024 244.79976 
L 455.25668 244.79976 
" style="fill:none;stroke:#000000;stroke-linecap:square;stroke-linejoin:miter;stroke-width:0.8;"/>
   </g>
   <g id="patch_6">
    <path d="M 63.08024 3.00024 
L 455.25668 3.00024 
" style="fill:none;stroke:#000000;stroke-linecap:square;stroke-linejoin:miter;stroke-width:0.8;"/>
   </g>
   <g id="legend_1">
    <g id="patch_7">
     <path d="M 333.231368 75.80024 
L 445.45668 75.80024 
Q 448.25668 75.80024 448.25668 73.00024 
L 448.25668 12.80024 
Q 448.25668 10.00024 445.45668 10.00024 
L 333.231368 10.00024 
Q 330.431368 10.00024 330.431368 12.80024 
L 330.431368 73.00024 
Q 330.431368 75.80024 333.231368 75.80024 
z
" style="fill:#ffffff;stroke:#cccccc;stroke-linejoin:miter;"/>
    </g>
    <g id="line2d_40">
     <path d="M 337.431368 22.18024 
L 365.431368 22.18024 
" style="fill:none;stroke:#1f77b4;stroke-linecap:square;stroke-width:2;"/>
    </g>
    <g id="line2d_41"/>
    <g id="text_14">
     <text style="font-family:Lato;font-size:14px;font-style:normal;font-weight:normal;text-anchor:start;" transform="rotate(-0, 376.631368, 27.08024)" x="376.631368" y="27.08024">PencilFFTs</text>
    </g>
    <g id="line2d_42">
     <path d="M 337.431368 41.78024 
L 365.431368 41.78024 
" style="fill:none;stroke:#ff7f0e;stroke-linecap:square;stroke-width:2;"/>
    </g>
    <g id="line2d_43"/>
    <g id="text_15">
     <text style="font-family:Lato;font-size:14px;font-style:normal;font-weight:normal;text-anchor:start;" transform="rotate(-0, 376.631368, 46.68024)" x="376.631368" y="46.68024">P3DFFT</text>
    </g>
    <g id="line2d_44">
     <path d="M 337.431368 61.38024 
L 365.431368 61.38024 
" style="fill:none;stroke:#000000;stroke-dasharray:2,3.3;stroke-dashoffset:0;stroke-width:2;"/>
    </g>
    <g id="line2d_45"/>
    <g id="text_16">
     <text style="font-family:Lato;font-size:14px;font-style:normal;font-weight:normal;text-anchor:start;" transform="rotate(-0, 376.631368, 66.28024)" x="376.631368" y="66.28024">Ideal</text>
    </g>
   </g>
   <g id="legend_2">
    <g id="patch_8">
     <path d="M 72.88024 237.79976 
L 152.96024 237.79976 
Q 155.76024 237.79976 155.76024 234.99976 
L 155.76024 174.79976 
Q 155.76024 171.99976 152.96024 171.99976 
L 72.88024 171.99976 
Q 70.08024 171.99976 70.08024 174.79976 
L 70.08024 234.99976 
Q 70.08024 237.79976 72.88024 237.79976 
z
" style="fill:#ffffff;stroke:#cccccc;stroke-linejoin:miter;"/>
    </g>
    <g id="text_17">
     <text style="font-family:Lato;font-size:14px;font-style:normal;font-weight:normal;text-anchor:start;" transform="rotate(-0, 81.730865, 189.07976)" x="81.730865" y="189.07976">Resolution</text>
    </g>
    <g id="line2d_46">
     <path d="M 77.08024 203.77976 
L 105.08024 203.77976 
" style="fill:none;stroke:#000000;stroke-linecap:square;stroke-width:2;"/>
    </g>
    <g id="line2d_47">
     <defs>
      <path d="M 0 4 
C 1.060812 4 2.078319 3.578535 2.828427 2.828427 
C 3.578535 2.078319 4 1.060812 4 0 
C 4 -1.060812 3.578535 -2.078319 2.828427 -2.828427 
C 2.078319 -3.578535 1.060812 -4 0 -4 
C -1.060812 -4 -2.078319 -3.578535 -2.828427 -2.828427 
C -3.578535 -2.078319 -4 -1.060812 -4 0 
C -4 1.060812 -3.578535 2.078319 -2.828427 2.828427 
C -2.078319 3.578535 -1.060812 4 0 4 
z
" id="m360db96595" style="stroke:#000000;stroke-width:1.5;"/>
     </defs>
     <g>
      <use style="fill-opacity:0;stroke:#000000;stroke-width:1.5;" x="91.08024" xlink:href="#m360db96595" y="203.77976"/>
     </g>
    </g>
    <g id="text_18">
     <text style="font-family:Lato;font-size:14px;font-style:normal;font-weight:normal;text-anchor:start;" transform="rotate(-0, 116.28024, 208.67976)" x="116.28024" y="208.67976">512</text>
    </g>
    <g id="line2d_48">
     <path d="M 77.08024 223.37976 
L 105.08024 223.37976 
" style="fill:none;stroke:#000000;stroke-linecap:square;stroke-width:2;"/>
    </g>
    <g id="line2d_49">
     <defs>
      <path d="M 0 -4 
L -4 4 
L 4 4 
z
" id="m414c70b5ae" style="stroke:#000000;stroke-linejoin:miter;stroke-width:1.5;"/>
     </defs>
     <g>
      <use style="fill-opacity:0;stroke:#000000;stroke-linejoin:miter;stroke-width:1.5;" x="91.08024" xlink:href="#m414c70b5ae" y="223.37976"/>
     </g>
    </g>
    <g id="text_19">
     <text style="font-family:Lato;font-size:14px;font-style:normal;font-weight:normal;text-anchor:start;" transform="rotate(-0, 116.28024, 228.27976)" x="116.28024" y="228.27976">1024</text>
    </g>
   </g>
  </g>
 </g>
 <defs>
  <clipPath id="p2f30b8b81f">
   <rect height="241.79952" width="392.17644" x="63.08024" y="3.00024"/>
  </clipPath>
 </defs>
</svg>
