<?xml version="1.0" encoding="utf-8" standalone="no"?>
<!DOCTYPE svg PUBLIC "-//W3C//DTD SVG 1.1//EN"
  "http://www.w3.org/Graphics/SVG/1.1/DTD/svg11.dtd">
<!-- Created with matplotlib (https://matplotlib.org/) -->
<svg version="1.1" viewBox="0 0 432 288" xmlns="http://www.w3.org/2000/svg" xmlns:xlink="http://www.w3.org/1999/xlink">
 <defs>
  <style type="text/css">
*{stroke-linecap:butt;stroke-linejoin:round;}
  </style>
 </defs>
 <g id="figure_1">
  <g id="patch_1">
   <path d="M 0 288 
L 432 288 
L 432 0 
L 0 0 
z
" style="fill:none;"/>
  </g>
  <g id="axes_1">
   <g id="patch_2">
    <path d="M 56.945865 248.20851 
L 428.99976 248.20851 
L 428.99976 3.00024 
L 56.945865 3.00024 
z
" style="fill:none;"/>
   </g>
   <g id="matplotlib.axis_1">
    <g id="xtick_1">
     <g id="line2d_1">
      <defs>
       <path d="M 0 0 
L 0 3.5 
" id="medcc079435" style="stroke:#000000;stroke-width:0.8;"/>
      </defs>
      <g>
       <use style="fill-opacity:0;stroke:#000000;stroke-width:0.8;" x="73.857406" xlink:href="#medcc079435" y="248.20851"/>
      </g>
     </g>
     <g id="text_1">
      <!-- $\mathdefault{128}$ -->
      <g transform="translate(63.417406 264.05851)">
       <text>
        <tspan style="font-family:Lato;font-size:12px;font-style:medium;font-weight:medium;" x="0 6.960007 13.920013" y="-0.296875">128</tspan>
       </text>
      </g>
     </g>
    </g>
    <g id="xtick_2">
     <g id="line2d_2">
      <g>
       <use style="fill-opacity:0;stroke:#000000;stroke-width:0.8;" x="130.229208" xlink:href="#medcc079435" y="248.20851"/>
      </g>
     </g>
     <g id="text_2">
      <!-- $\mathdefault{256}$ -->
      <g transform="translate(119.789208 264.05851)">
       <text>
        <tspan style="font-family:Lato;font-size:12px;font-style:medium;font-weight:medium;" x="0 6.960007 13.920013" y="-0.296875">256</tspan>
       </text>
      </g>
     </g>
    </g>
    <g id="xtick_3">
     <g id="line2d_3">
      <g>
       <use style="fill-opacity:0;stroke:#000000;stroke-width:0.8;" x="186.60101" xlink:href="#medcc079435" y="248.20851"/>
      </g>
     </g>
     <g id="text_3">
      <!-- $\mathdefault{512}$ -->
      <g transform="translate(176.16101 264.05851)">
       <text>
        <tspan style="font-family:Lato;font-size:12px;font-style:medium;font-weight:medium;" x="0 6.960007 13.920013" y="-0.296875">512</tspan>
       </text>
      </g>
     </g>
    </g>
    <g id="xtick_4">
     <g id="line2d_4">
      <g>
       <use style="fill-opacity:0;stroke:#000000;stroke-width:0.8;" x="242.972813" xlink:href="#medcc079435" y="248.20851"/>
      </g>
     </g>
     <g id="text_4">
      <!-- $\mathdefault{1024}$ -->
      <g transform="translate(229.052813 264.05851)">
       <text>
        <tspan style="font-family:Lato;font-size:12px;font-style:medium;font-weight:medium;" x="0 6.960007 13.920013 20.88002" y="-0.296875">1024</tspan>
       </text>
      </g>
     </g>
    </g>
    <g id="xtick_5">
     <g id="line2d_5">
      <g>
       <use style="fill-opacity:0;stroke:#000000;stroke-width:0.8;" x="299.344615" xlink:href="#medcc079435" y="248.20851"/>
      </g>
     </g>
     <g id="text_5">
      <!-- $\mathdefault{2048}$ -->
      <g transform="translate(285.424615 264.05851)">
       <text>
        <tspan style="font-family:Lato;font-size:12px;font-style:medium;font-weight:medium;" x="0 6.960007 13.920013 20.88002" y="-0.296875">2048</tspan>
       </text>
      </g>
     </g>
    </g>
    <g id="xtick_6">
     <g id="line2d_6">
      <g>
       <use style="fill-opacity:0;stroke:#000000;stroke-width:0.8;" x="355.716417" xlink:href="#medcc079435" y="248.20851"/>
      </g>
     </g>
     <g id="text_6">
      <!-- $\mathdefault{4096}$ -->
      <g transform="translate(341.796417 264.05851)">
       <text>
        <tspan style="font-family:Lato;font-size:12px;font-style:medium;font-weight:medium;" x="0 6.960007 13.920013 20.88002" y="-0.296875">4096</tspan>
       </text>
      </g>
     </g>
    </g>
    <g id="xtick_7">
     <g id="line2d_7">
      <g>
       <use style="fill-opacity:0;stroke:#000000;stroke-width:0.8;" x="412.088219" xlink:href="#medcc079435" y="248.20851"/>
      </g>
     </g>
     <g id="text_7">
      <!-- $\mathdefault{8192}$ -->
      <g transform="translate(398.168219 264.05851)">
       <text>
        <tspan style="font-family:Lato;font-size:12px;font-style:medium;font-weight:medium;" x="0 6.960007 13.920013 20.88002" y="-0.296875">8192</tspan>
       </text>
      </g>
     </g>
    </g>
    <g id="text_8">
     <text style="font-family:Lato;font-size:12px;font-style:normal;font-weight:medium;text-anchor:middle;" transform="rotate(-0, 242.972813, 282.954135)" x="242.972813" y="282.954135">MPI processes</text>
    </g>
   </g>
   <g id="matplotlib.axis_2">
    <g id="ytick_1">
     <g id="line2d_8">
      <defs>
       <path d="M 0 0 
L -3.5 0 
" id="m91f666bde1" style="stroke:#000000;stroke-width:0.8;"/>
      </defs>
      <g>
       <use style="fill-opacity:0;stroke:#000000;stroke-width:0.8;" x="56.945865" xlink:href="#m91f666bde1" y="203.625873"/>
      </g>
     </g>
     <g id="text_9">
      <!-- $\mathdefault{10}$ -->
      <g transform="translate(36.025865 208.050873)">
       <text>
        <tspan style="font-family:Lato;font-size:12px;font-style:medium;font-weight:medium;" x="0 6.960007" y="-0.296875">10</tspan>
       </text>
      </g>
     </g>
    </g>
    <g id="ytick_2">
     <g id="line2d_9">
      <g>
       <use style="fill-opacity:0;stroke:#000000;stroke-width:0.8;" x="56.945865" xlink:href="#m91f666bde1" y="106.332502"/>
      </g>
     </g>
     <g id="text_10">
      <!-- $\mathdefault{100}$ -->
      <g transform="translate(29.065865 110.757502)">
       <text>
        <tspan style="font-family:Lato;font-size:12px;font-style:medium;font-weight:medium;" x="0 6.960007 13.920013" y="-0.296875">100</tspan>
       </text>
      </g>
     </g>
    </g>
    <g id="ytick_3">
     <g id="line2d_10">
      <g>
       <use style="fill-opacity:0;stroke:#000000;stroke-width:0.8;" x="56.945865" xlink:href="#m91f666bde1" y="9.03913"/>
      </g>
     </g>
     <g id="text_11">
      <!-- $\mathdefault{1000}$ -->
      <g transform="translate(22.105865 13.46413)">
       <text>
        <tspan style="font-family:Lato;font-size:12px;font-style:medium;font-weight:medium;" x="0 6.960007 13.920013 20.88002" y="-0.296875">1000</tspan>
       </text>
      </g>
     </g>
    </g>
    <g id="ytick_4">
     <g id="line2d_11">
      <defs>
       <path d="M 0 0 
L -2 0 
" id="mb1fdb361b1" style="stroke:#000000;stroke-width:0.6;"/>
      </defs>
      <g>
       <use style="fill-opacity:0;stroke:#000000;stroke-width:0.6;" x="56.945865" xlink:href="#mb1fdb361b1" y="242.342798"/>
      </g>
     </g>
    </g>
    <g id="ytick_5">
     <g id="line2d_12">
      <g>
       <use style="fill-opacity:0;stroke:#000000;stroke-width:0.6;" x="56.945865" xlink:href="#mb1fdb361b1" y="232.914096"/>
      </g>
     </g>
    </g>
    <g id="ytick_6">
     <g id="line2d_13">
      <g>
       <use style="fill-opacity:0;stroke:#000000;stroke-width:0.6;" x="56.945865" xlink:href="#mb1fdb361b1" y="225.210286"/>
      </g>
     </g>
    </g>
    <g id="ytick_7">
     <g id="line2d_14">
      <g>
       <use style="fill-opacity:0;stroke:#000000;stroke-width:0.6;" x="56.945865" xlink:href="#mb1fdb361b1" y="218.696807"/>
      </g>
     </g>
    </g>
    <g id="ytick_8">
     <g id="line2d_15">
      <g>
       <use style="fill-opacity:0;stroke:#000000;stroke-width:0.6;" x="56.945865" xlink:href="#mb1fdb361b1" y="213.054575"/>
      </g>
     </g>
    </g>
    <g id="ytick_9">
     <g id="line2d_16">
      <g>
       <use style="fill-opacity:0;stroke:#000000;stroke-width:0.6;" x="56.945865" xlink:href="#mb1fdb361b1" y="208.077774"/>
      </g>
     </g>
    </g>
    <g id="ytick_10">
     <g id="line2d_17">
      <g>
       <use style="fill-opacity:0;stroke:#000000;stroke-width:0.6;" x="56.945865" xlink:href="#mb1fdb361b1" y="174.33765"/>
      </g>
     </g>
    </g>
    <g id="ytick_11">
     <g id="line2d_18">
      <g>
       <use style="fill-opacity:0;stroke:#000000;stroke-width:0.6;" x="56.945865" xlink:href="#mb1fdb361b1" y="157.205138"/>
      </g>
     </g>
    </g>
    <g id="ytick_12">
     <g id="line2d_19">
      <g>
       <use style="fill-opacity:0;stroke:#000000;stroke-width:0.6;" x="56.945865" xlink:href="#mb1fdb361b1" y="145.049427"/>
      </g>
     </g>
    </g>
    <g id="ytick_13">
     <g id="line2d_20">
      <g>
       <use style="fill-opacity:0;stroke:#000000;stroke-width:0.6;" x="56.945865" xlink:href="#mb1fdb361b1" y="135.620725"/>
      </g>
     </g>
    </g>
    <g id="ytick_14">
     <g id="line2d_21">
      <g>
       <use style="fill-opacity:0;stroke:#000000;stroke-width:0.6;" x="56.945865" xlink:href="#mb1fdb361b1" y="127.916915"/>
      </g>
     </g>
    </g>
    <g id="ytick_15">
     <g id="line2d_22">
      <g>
       <use style="fill-opacity:0;stroke:#000000;stroke-width:0.6;" x="56.945865" xlink:href="#mb1fdb361b1" y="121.403436"/>
      </g>
     </g>
    </g>
    <g id="ytick_16">
     <g id="line2d_23">
      <g>
       <use style="fill-opacity:0;stroke:#000000;stroke-width:0.6;" x="56.945865" xlink:href="#mb1fdb361b1" y="115.761204"/>
      </g>
     </g>
    </g>
    <g id="ytick_17">
     <g id="line2d_24">
      <g>
       <use style="fill-opacity:0;stroke:#000000;stroke-width:0.6;" x="56.945865" xlink:href="#mb1fdb361b1" y="110.784402"/>
      </g>
     </g>
    </g>
    <g id="ytick_18">
     <g id="line2d_25">
      <g>
       <use style="fill-opacity:0;stroke:#000000;stroke-width:0.6;" x="56.945865" xlink:href="#mb1fdb361b1" y="77.044279"/>
      </g>
     </g>
    </g>
    <g id="ytick_19">
     <g id="line2d_26">
      <g>
       <use style="fill-opacity:0;stroke:#000000;stroke-width:0.6;" x="56.945865" xlink:href="#mb1fdb361b1" y="59.911766"/>
      </g>
     </g>
    </g>
    <g id="ytick_20">
     <g id="line2d_27">
      <g>
       <use style="fill-opacity:0;stroke:#000000;stroke-width:0.6;" x="56.945865" xlink:href="#mb1fdb361b1" y="47.756055"/>
      </g>
     </g>
    </g>
    <g id="ytick_21">
     <g id="line2d_28">
      <g>
       <use style="fill-opacity:0;stroke:#000000;stroke-width:0.6;" x="56.945865" xlink:href="#mb1fdb361b1" y="38.327354"/>
      </g>
     </g>
    </g>
    <g id="ytick_22">
     <g id="line2d_29">
      <g>
       <use style="fill-opacity:0;stroke:#000000;stroke-width:0.6;" x="56.945865" xlink:href="#mb1fdb361b1" y="30.623543"/>
      </g>
     </g>
    </g>
    <g id="ytick_23">
     <g id="line2d_30">
      <g>
       <use style="fill-opacity:0;stroke:#000000;stroke-width:0.6;" x="56.945865" xlink:href="#mb1fdb361b1" y="24.110064"/>
      </g>
     </g>
    </g>
    <g id="ytick_24">
     <g id="line2d_31">
      <g>
       <use style="fill-opacity:0;stroke:#000000;stroke-width:0.6;" x="56.945865" xlink:href="#mb1fdb361b1" y="18.467832"/>
      </g>
     </g>
    </g>
    <g id="ytick_25">
     <g id="line2d_32">
      <g>
       <use style="fill-opacity:0;stroke:#000000;stroke-width:0.6;" x="56.945865" xlink:href="#mb1fdb361b1" y="13.491031"/>
      </g>
     </g>
    </g>
    <g id="text_12">
     <text style="font-family:Lato;font-size:12px;font-style:normal;font-weight:medium;text-anchor:middle;" transform="rotate(-90, 12.06024, 125.604375)" x="12.06024" y="125.604375">Time (milliseconds)</text>
    </g>
   </g>
   <g id="line2d_33">
    <path clip-path="url(#pc0e803235f)" d="M 73.857406 90.621564 
L 130.229208 115.638723 
L 186.60101 141.995299 
L 242.972813 165.773805 
L 299.344615 182.163186 
L 355.716417 202.979825 
" style="fill:none;stroke:#1f77b4;stroke-linecap:square;stroke-width:2;"/>
    <defs>
     <path d="M 0 4 
C 1.060812 4 2.078319 3.578535 2.828427 2.828427 
C 3.578535 2.078319 4 1.060812 4 0 
C 4 -1.060812 3.578535 -2.078319 2.828427 -2.828427 
C 2.078319 -3.578535 1.060812 -4 0 -4 
C -1.060812 -4 -2.078319 -3.578535 -2.828427 -2.828427 
C -3.578535 -2.078319 -4 -1.060812 -4 0 
C -4 1.060812 -3.578535 2.078319 -2.828427 2.828427 
C -2.078319 3.578535 -1.060812 4 0 4 
z
" id="m6b73812a2a" style="stroke:#1f77b4;stroke-width:1.5;"/>
    </defs>
    <g clip-path="url(#pc0e803235f)">
     <use style="fill-opacity:0;stroke:#1f77b4;stroke-width:1.5;" x="73.857406" xlink:href="#m6b73812a2a" y="90.621564"/>
     <use style="fill-opacity:0;stroke:#1f77b4;stroke-width:1.5;" x="130.229208" xlink:href="#m6b73812a2a" y="115.638723"/>
     <use style="fill-opacity:0;stroke:#1f77b4;stroke-width:1.5;" x="186.60101" xlink:href="#m6b73812a2a" y="141.995299"/>
     <use style="fill-opacity:0;stroke:#1f77b4;stroke-width:1.5;" x="242.972813" xlink:href="#m6b73812a2a" y="165.773805"/>
     <use style="fill-opacity:0;stroke:#1f77b4;stroke-width:1.5;" x="299.344615" xlink:href="#m6b73812a2a" y="182.163186"/>
     <use style="fill-opacity:0;stroke:#1f77b4;stroke-width:1.5;" x="355.716417" xlink:href="#m6b73812a2a" y="202.979825"/>
    </g>
   </g>
   <g id="line2d_34">
    <path clip-path="url(#pc0e803235f)" d="M 73.857406 90.621564 
L 130.229208 119.909787 
L 186.60101 149.19801 
L 242.972813 178.486233 
L 299.344615 207.774456 
L 355.716417 237.06268 
" style="fill:none;stroke:#000000;stroke-dasharray:2,3.3;stroke-dashoffset:0;stroke-width:2;"/>
   </g>
   <g id="line2d_35">
    <path clip-path="url(#pc0e803235f)" d="M 73.857406 96.495744 
L 130.229208 122.054979 
L 186.60101 143.102694 
L 242.972813 166.065143 
L 299.344615 190.603917 
L 355.716417 207.161526 
" style="fill:none;stroke:#ff7f0e;stroke-linecap:square;stroke-width:2;"/>
    <defs>
     <path d="M 0 4 
C 1.060812 4 2.078319 3.578535 2.828427 2.828427 
C 3.578535 2.078319 4 1.060812 4 0 
C 4 -1.060812 3.578535 -2.078319 2.828427 -2.828427 
C 2.078319 -3.578535 1.060812 -4 0 -4 
C -1.060812 -4 -2.078319 -3.578535 -2.828427 -2.828427 
C -3.578535 -2.078319 -4 -1.060812 -4 0 
C -4 1.060812 -3.578535 2.078319 -2.828427 2.828427 
C -2.078319 3.578535 -1.060812 4 0 4 
z
" id="m586d8b2ad3" style="stroke:#ff7f0e;stroke-width:1.5;"/>
    </defs>
    <g clip-path="url(#pc0e803235f)">
     <use style="fill-opacity:0;stroke:#ff7f0e;stroke-width:1.5;" x="73.857406" xlink:href="#m586d8b2ad3" y="96.495744"/>
     <use style="fill-opacity:0;stroke:#ff7f0e;stroke-width:1.5;" x="130.229208" xlink:href="#m586d8b2ad3" y="122.054979"/>
     <use style="fill-opacity:0;stroke:#ff7f0e;stroke-width:1.5;" x="186.60101" xlink:href="#m586d8b2ad3" y="143.102694"/>
     <use style="fill-opacity:0;stroke:#ff7f0e;stroke-width:1.5;" x="242.972813" xlink:href="#m586d8b2ad3" y="166.065143"/>
     <use style="fill-opacity:0;stroke:#ff7f0e;stroke-width:1.5;" x="299.344615" xlink:href="#m586d8b2ad3" y="190.603917"/>
     <use style="fill-opacity:0;stroke:#ff7f0e;stroke-width:1.5;" x="355.716417" xlink:href="#m586d8b2ad3" y="207.161526"/>
    </g>
   </g>
   <g id="line2d_36">
    <path clip-path="url(#pc0e803235f)" d="M 130.229208 14.14607 
L 186.60101 41.546912 
L 242.972813 73.124273 
L 299.344615 102.132965 
L 355.716417 118.517859 
L 412.088219 142.2187 
" style="fill:none;stroke:#1f77b4;stroke-linecap:square;stroke-width:2;"/>
    <defs>
     <path d="M 0 -4 
L -4 4 
L 4 4 
z
" id="m379e5a9889" style="stroke:#1f77b4;stroke-linejoin:miter;stroke-width:1.5;"/>
    </defs>
    <g clip-path="url(#pc0e803235f)">
     <use style="fill-opacity:0;stroke:#1f77b4;stroke-linejoin:miter;stroke-width:1.5;" x="130.229208" xlink:href="#m379e5a9889" y="14.14607"/>
     <use style="fill-opacity:0;stroke:#1f77b4;stroke-linejoin:miter;stroke-width:1.5;" x="186.60101" xlink:href="#m379e5a9889" y="41.546912"/>
     <use style="fill-opacity:0;stroke:#1f77b4;stroke-linejoin:miter;stroke-width:1.5;" x="242.972813" xlink:href="#m379e5a9889" y="73.124273"/>
     <use style="fill-opacity:0;stroke:#1f77b4;stroke-linejoin:miter;stroke-width:1.5;" x="299.344615" xlink:href="#m379e5a9889" y="102.132965"/>
     <use style="fill-opacity:0;stroke:#1f77b4;stroke-linejoin:miter;stroke-width:1.5;" x="355.716417" xlink:href="#m379e5a9889" y="118.517859"/>
     <use style="fill-opacity:0;stroke:#1f77b4;stroke-linejoin:miter;stroke-width:1.5;" x="412.088219" xlink:href="#m379e5a9889" y="142.2187"/>
    </g>
   </g>
   <g id="line2d_37">
    <path clip-path="url(#pc0e803235f)" d="M 130.229208 14.14607 
L 186.60101 43.434294 
L 242.972813 72.722517 
L 299.344615 102.01074 
L 355.716417 131.298963 
L 412.088219 160.587186 
" style="fill:none;stroke:#000000;stroke-dasharray:2,3.3;stroke-dashoffset:0;stroke-width:2;"/>
   </g>
   <g id="line2d_38">
    <path clip-path="url(#pc0e803235f)" d="M 130.229208 30.023799 
L 186.60101 54.623002 
L 242.972813 77.165722 
L 299.344615 107.167438 
L 355.716417 120.964233 
L 412.088219 129.456326 
" style="fill:none;stroke:#ff7f0e;stroke-linecap:square;stroke-width:2;"/>
    <defs>
     <path d="M 0 -4 
L -4 4 
L 4 4 
z
" id="m7edc874373" style="stroke:#ff7f0e;stroke-linejoin:miter;stroke-width:1.5;"/>
    </defs>
    <g clip-path="url(#pc0e803235f)">
     <use style="fill-opacity:0;stroke:#ff7f0e;stroke-linejoin:miter;stroke-width:1.5;" x="130.229208" xlink:href="#m7edc874373" y="30.023799"/>
     <use style="fill-opacity:0;stroke:#ff7f0e;stroke-linejoin:miter;stroke-width:1.5;" x="186.60101" xlink:href="#m7edc874373" y="54.623002"/>
     <use style="fill-opacity:0;stroke:#ff7f0e;stroke-linejoin:miter;stroke-width:1.5;" x="242.972813" xlink:href="#m7edc874373" y="77.165722"/>
     <use style="fill-opacity:0;stroke:#ff7f0e;stroke-linejoin:miter;stroke-width:1.5;" x="299.344615" xlink:href="#m7edc874373" y="107.167438"/>
     <use style="fill-opacity:0;stroke:#ff7f0e;stroke-linejoin:miter;stroke-width:1.5;" x="355.716417" xlink:href="#m7edc874373" y="120.964233"/>
     <use style="fill-opacity:0;stroke:#ff7f0e;stroke-linejoin:miter;stroke-width:1.5;" x="412.088219" xlink:href="#m7edc874373" y="129.456326"/>
    </g>
   </g>
   <g id="patch_3">
    <path d="M 56.945865 248.20851 
L 56.945865 3.00024 
" style="fill:none;stroke:#000000;stroke-linecap:square;stroke-linejoin:miter;stroke-width:0.8;"/>
   </g>
   <g id="patch_4">
    <path d="M 428.99976 248.20851 
L 428.99976 3.00024 
" style="fill:none;stroke:#000000;stroke-linecap:square;stroke-linejoin:miter;stroke-width:0.8;"/>
   </g>
   <g id="patch_5">
    <path d="M 56.945865 248.20851 
L 428.99976 248.20851 
" style="fill:none;stroke:#000000;stroke-linecap:square;stroke-linejoin:miter;stroke-width:0.8;"/>
   </g>
   <g id="patch_6">
    <path d="M 56.945865 3.00024 
L 428.99976 3.00024 
" style="fill:none;stroke:#000000;stroke-linecap:square;stroke-linejoin:miter;stroke-width:0.8;"/>
   </g>
   <g id="legend_1">
    <g id="patch_7">
     <path d="M 322.145385 65.687115 
L 420.59976 65.687115 
Q 422.99976 65.687115 422.99976 63.287115 
L 422.99976 11.40024 
Q 422.99976 9.00024 420.59976 9.00024 
L 322.145385 9.00024 
Q 319.745385 9.00024 319.745385 11.40024 
L 319.745385 63.287115 
Q 319.745385 65.687115 322.145385 65.687115 
z
" style="fill:#ffffff;stroke:#cccccc;stroke-linejoin:miter;"/>
    </g>
    <g id="line2d_39">
     <path d="M 325.745385 19.65024 
L 349.745385 19.65024 
" style="fill:none;stroke:#1f77b4;stroke-linecap:square;stroke-width:2;"/>
    </g>
    <g id="line2d_40"/>
    <g id="text_13">
     <text style="font-family:Lato;font-size:12px;font-style:normal;font-weight:medium;text-anchor:start;" transform="rotate(-0, 359.345385, 23.85024)" x="359.345385" y="23.85024">PencilFFTs</text>
    </g>
    <g id="line2d_41">
     <path d="M 325.745385 36.545865 
L 349.745385 36.545865 
" style="fill:none;stroke:#ff7f0e;stroke-linecap:square;stroke-width:2;"/>
    </g>
    <g id="line2d_42"/>
    <g id="text_14">
     <text style="font-family:Lato;font-size:12px;font-style:normal;font-weight:medium;text-anchor:start;" transform="rotate(-0, 359.345385, 40.745865)" x="359.345385" y="40.745865">P3DFFT</text>
    </g>
    <g id="line2d_43">
     <path d="M 325.745385 53.44149 
L 349.745385 53.44149 
" style="fill:none;stroke:#000000;stroke-dasharray:2,3.3;stroke-dashoffset:0;stroke-width:2;"/>
    </g>
    <g id="line2d_44"/>
    <g id="text_15">
     <text style="font-family:Lato;font-size:12px;font-style:normal;font-weight:medium;text-anchor:start;" transform="rotate(-0, 359.345385, 57.64149)" x="359.345385" y="57.64149">Ideal</text>
    </g>
   </g>
   <g id="legend_2">
    <g id="patch_8">
     <path d="M 65.345865 242.20851 
L 137.994615 242.20851 
Q 140.394615 242.20851 140.394615 239.80851 
L 140.394615 187.921635 
Q 140.394615 185.521635 137.994615 185.521635 
L 65.345865 185.521635 
Q 62.945865 185.521635 62.945865 187.921635 
L 62.945865 239.80851 
Q 62.945865 242.20851 65.345865 242.20851 
z
" style="fill:#ffffff;stroke:#cccccc;stroke-linejoin:miter;"/>
    </g>
    <g id="text_16">
     <text style="font-family:Lato;font-size:12px;font-style:normal;font-weight:medium;text-anchor:start;" transform="rotate(-0, 73.553678, 200.371635)" x="73.553678" y="200.371635">Resolution</text>
    </g>
    <g id="line2d_45">
     <path d="M 68.945865 213.06726 
L 92.945865 213.06726 
" style="fill:none;stroke:#000000;stroke-linecap:square;stroke-width:2;"/>
    </g>
    <g id="line2d_46">
     <defs>
      <path d="M 0 4 
C 1.060812 4 2.078319 3.578535 2.828427 2.828427 
C 3.578535 2.078319 4 1.060812 4 0 
C 4 -1.060812 3.578535 -2.078319 2.828427 -2.828427 
C 2.078319 -3.578535 1.060812 -4 0 -4 
C -1.060812 -4 -2.078319 -3.578535 -2.828427 -2.828427 
C -3.578535 -2.078319 -4 -1.060812 -4 0 
C -4 1.060812 -3.578535 2.078319 -2.828427 2.828427 
C -2.078319 3.578535 -1.060812 4 0 4 
z
" id="m360db96595" style="stroke:#000000;stroke-width:1.5;"/>
     </defs>
     <g>
      <use style="fill-opacity:0;stroke:#000000;stroke-width:1.5;" x="80.945865" xlink:href="#m360db96595" y="213.06726"/>
     </g>
    </g>
    <g id="text_17">
     <text style="font-family:Lato;font-size:12px;font-style:normal;font-weight:medium;text-anchor:start;" transform="rotate(-0, 102.545865, 217.26726)" x="102.545865" y="217.26726">512³</text>
    </g>
    <g id="line2d_47">
     <path d="M 68.945865 229.962885 
L 92.945865 229.962885 
" style="fill:none;stroke:#000000;stroke-linecap:square;stroke-width:2;"/>
    </g>
    <g id="line2d_48">
     <defs>
      <path d="M 0 -4 
L -4 4 
L 4 4 
z
" id="m414c70b5ae" style="stroke:#000000;stroke-linejoin:miter;stroke-width:1.5;"/>
     </defs>
     <g>
      <use style="fill-opacity:0;stroke:#000000;stroke-linejoin:miter;stroke-width:1.5;" x="80.945865" xlink:href="#m414c70b5ae" y="229.962885"/>
     </g>
    </g>
    <g id="text_18">
     <text style="font-family:Lato;font-size:12px;font-style:normal;font-weight:medium;text-anchor:start;" transform="rotate(-0, 102.545865, 234.162885)" x="102.545865" y="234.162885">1024³</text>
    </g>
   </g>
  </g>
 </g>
 <defs>
  <clipPath id="pc0e803235f">
   <rect height="245.20827" width="372.053895" x="56.945865" y="3.00024"/>
  </clipPath>
 </defs>
</svg>
